<svg width="46" height="46" viewBox="0 0 46 46" fill="none" xmlns="http://www.w3.org/2000/svg">
<g clip-path="url(#clip0_1_28)">
<mask id="mask0_1_28" style="mask-type:luminance" maskUnits="userSpaceOnUse" x="2" y="2" width="42" height="42">
<path d="M44 2H2V44H44V2Z" fill="white"/>
</mask>
<g mask="url(#mask0_1_28)">
<path d="M23 44C34.598 44 44 34.598 44 23C44 11.402 34.598 2 23 2C11.402 2 2 11.402 2 23C2 34.598 11.402 44 23 44Z" fill="#F3BA2F"/>
<path d="M17.9023 20.9053L23 15.8075L28.1004 20.9079L31.0666 17.9416L23 9.875L14.936 17.939L17.9023 20.9053ZM9.875 23L12.8413 20.0337L15.8075 23L12.8413 25.9663L9.875 23ZM17.9023 25.0948L23 30.1925L28.1004 25.0921L31.0666 28.0571L23 36.125L14.936 28.061L14.9321 28.0571L17.9023 25.0948ZM30.1925 23L33.1587 20.0337L36.125 23L33.1587 25.9663L30.1925 23ZM26.0082 22.9974H26.0109V23L23 26.0109L19.9931 23.0052L19.9878 23L19.9931 22.9961L20.5194 22.4684L20.7753 22.2125L23 19.9891L26.0096 22.9987L26.0082 22.9974Z" fill="white"/>
</g>
</g>
<path d="M36 45C40.9706 45 45 40.9706 45 36C45 31.0294 40.9706 27 36 27C31.0294 27 27 31.0294 27 36C27 40.9706 31.0294 45 36 45Z" fill="#D9D9D9" stroke="white" stroke-width="1.90554"/>
<mask id="mask1_1_28" style="mask-type:luminance" maskUnits="userSpaceOnUse" x="28" y="28" width="16" height="16">
<path d="M44 28H28V44H44V28Z" fill="white"/>
</mask>
<g mask="url(#mask1_1_28)">
<path d="M36 44C40.4183 44 44 40.4183 44 36C44 31.5817 40.4183 28 36 28C31.5817 28 28 31.5817 28 36C28 40.4183 31.5817 44 36 44Z" fill="#F3BA2F"/>
<path d="M34.058 35.202L36 33.26L37.943 35.203L39.073 34.073L36 31L32.928 34.072L34.058 35.202ZM31 36L32.13 34.87L33.26 36L32.13 37.13L31 36ZM34.058 36.798L36 38.74L37.943 36.797L39.073 37.9265L36 41L32.928 37.928L32.9265 37.9265L34.058 36.798ZM38.74 36L39.87 34.87L41 36L39.87 37.13L38.74 36ZM37.146 35.999H37.147V36L36 37.147L34.8545 36.002L34.8525 36L34.8545 35.9985L35.055 35.7975L35.1525 35.7L36 34.853L37.1465 35.9995L37.146 35.999Z" fill="white"/>
</g>
<defs>
<clipPath id="clip0_1_28">
<rect width="42" height="42" fill="white" transform="translate(2 2)"/>
</clipPath>
</defs>
</svg>
