<svg width="45" height="46" viewBox="0 0 45 46" fill="none" xmlns="http://www.w3.org/2000/svg">
<g clip-path="url(#clip0_1677_1285)">
<path d="M21.1052 42.2078C32.6496 42.2078 42.0082 32.8492 42.0082 21.3047C42.0082 9.76029 32.6496 0.401672 21.1052 0.401672C9.56076 0.401672 0.202148 9.76029 0.202148 21.3047C0.202148 32.8492 9.56076 42.2078 21.1052 42.2078Z" fill="#26A17B"/>
<path fill-rule="evenodd" clip-rule="evenodd" d="M23.6166 23.1119V23.1093C23.4728 23.1197 22.7321 23.1641 21.0794 23.1641C19.7599 23.1641 18.8311 23.125 18.5045 23.1093V23.1132C13.425 22.8898 9.63372 22.0053 9.63372 20.9471C9.63372 19.8902 13.425 19.0057 18.5045 18.7784V22.2327C18.8363 22.2562 19.7874 22.3123 21.1017 22.3123C22.6785 22.3123 23.4689 22.247 23.6166 22.234V18.781C28.6855 19.0071 32.4677 19.8915 32.4677 20.9471C32.4677 22.0053 28.6855 22.8872 23.6166 23.1119V23.1119ZM23.6166 18.4218V15.3307H30.6896V10.6171H11.4314V15.3307H18.5045V18.4205C12.7561 18.6844 8.43311 19.8236 8.43311 21.1875C8.43311 22.5514 12.7561 23.6893 18.5045 23.9545V33.86H23.6166V23.9519C29.3557 23.688 33.6683 22.5501 33.6683 21.1875C33.6683 19.8249 29.3557 18.687 23.6166 18.4218" fill="white"/>
</g>
<circle cx="35.3574" cy="35.5568" r="8.55125" fill="#D9D9D9" stroke="white" stroke-width="1.90028"/>
<g clip-path="url(#clip1_1677_1285)">
<path d="M35.3575 43.1579C39.5554 43.1579 42.9586 39.7548 42.9586 35.5568C42.9586 31.3588 39.5554 27.9557 35.3575 27.9557C31.1595 27.9557 27.7563 31.3588 27.7563 35.5568C27.7563 39.7548 31.1595 43.1579 35.3575 43.1579Z" fill="#627EEA"/>
<path d="M35.3267 29.8559V34.0698L38.8883 35.6613L35.3267 29.8559Z" fill="white" fill-opacity="0.602"/>
<path d="M35.3267 29.8559L31.7646 35.6613L35.3267 34.0698V29.8559Z" fill="white"/>
<path d="M35.3267 38.3921V41.2553L38.8906 36.3246L35.3267 38.3921Z" fill="white" fill-opacity="0.602"/>
<path d="M35.3267 41.2553V38.3916L31.7646 36.3246L35.3267 41.2553Z" fill="white"/>
<path d="M35.3267 37.7293L38.8883 35.6613L35.3267 34.0708V37.7293Z" fill="white" fill-opacity="0.2"/>
<path d="M31.7646 35.6613L35.3267 37.7293V34.0708L31.7646 35.6613Z" fill="white" fill-opacity="0.602"/>
</g>
<defs>
<clipPath id="clip0_1677_1285">
<rect width="41.8061" height="41.8061" fill="white" transform="translate(0.202148 0.401672)"/>
</clipPath>
<clipPath id="clip1_1677_1285">
<rect x="27.7563" y="27.9557" width="15.2022" height="15.2022" rx="7.60111" fill="white"/>
</clipPath>
</defs>
</svg>
