<svg width="49" height="46" viewBox="0 0 49 46" fill="none" xmlns="http://www.w3.org/2000/svg">
<path d="M22.5 45C34.9688 45 45 34.9688 45 22.5C45 10.0312 34.9688 0 22.5 0C10.0312 0 0 10.0312 0 22.5C0 34.9688 10.0312 45 22.5 45Z" fill="#2775CA"/>
<path d="M28.6874 26.0625C28.6874 22.7813 26.7187 21.6563 22.7812 21.1876C19.9687 20.8126 19.4062 20.0627 19.4062 18.75C19.4062 17.4374 20.3438 16.5938 22.2187 16.5938C23.9062 16.5938 24.8438 17.1563 25.3124 18.5626C25.4063 18.8438 25.6875 19.0313 25.9688 19.0313H27.4686C27.8437 19.0313 28.1249 18.75 28.1249 18.3751V18.2813C27.7499 16.2188 26.0624 14.6251 23.9062 14.4376V12.1876C23.9062 11.8126 23.6249 11.5313 23.1563 11.4375H21.75C21.3749 11.4375 21.0937 11.7187 20.9999 12.1876V14.3438C18.1874 14.7189 16.4063 16.5938 16.4063 18.9376C16.4063 22.0314 18.2812 23.25 22.2187 23.7189C24.8438 24.1876 25.6875 24.7501 25.6875 26.2502C25.6875 27.7502 24.3749 28.7814 22.5938 28.7814C20.1561 28.7814 19.3124 27.75 19.0311 26.3437C18.9375 25.9689 18.6563 25.7812 18.375 25.7812H16.7811C16.4063 25.7812 16.125 26.0625 16.125 26.4376V26.5314C16.4999 28.875 17.9999 30.5625 21.0937 31.0314V33.2814C21.0937 33.6563 21.3749 33.9375 21.8436 34.0313H23.2498C23.6249 34.0313 23.9062 33.7501 24 33.2814V31.0314C26.8125 30.5625 28.6874 28.5937 28.6874 26.0625Z" fill="white"/>
<path d="M17.7189 35.9061C10.4064 33.2812 6.65629 25.125 9.37519 17.9061C10.7814 13.9686 13.8752 10.9687 17.7189 9.56242C18.0939 9.375 18.2814 9.09375 18.2814 8.62485V7.31242C18.2814 6.93735 18.0939 6.6561 17.7189 6.5625C17.625 6.5625 17.4376 6.5625 17.3438 6.6561C8.43762 9.4686 3.56254 18.9375 6.37504 27.8437C8.06254 33.0936 12.0939 37.1249 17.3438 38.8124C17.7189 38.9998 18.0939 38.8124 18.1875 38.4373C18.2814 38.3437 18.2814 38.2499 18.2814 38.0625V36.7498C18.2814 36.4686 18.0001 36.0937 17.7189 35.9061ZM27.6564 6.6561C27.2814 6.46867 26.9063 6.6561 26.8127 7.03117C26.7189 7.125 26.7189 7.2186 26.7189 7.40625V8.71867C26.7189 9.09375 27.0001 9.4686 27.2814 9.65625C34.5939 12.2811 38.3439 20.4374 35.625 27.6562C34.2188 31.5937 31.125 34.5937 27.2814 35.9999C26.9063 36.1873 26.7189 36.4686 26.7189 36.9375V38.2499C26.7189 38.625 26.9063 38.9062 27.2814 38.9998C27.3752 38.9998 27.5626 38.9998 27.6564 38.9062C36.5626 36.0938 41.4377 26.6248 38.6252 17.7187C36.9377 12.3749 32.8125 8.3436 27.6564 6.6561Z" fill="white"/>
<path d="M38.5512 43.1025C43.274 43.1025 47.1025 39.274 47.1025 34.5513C47.1025 29.8285 43.274 26 38.5512 26C33.8285 26 30 29.8285 30 34.5513C30 39.274 33.8285 43.1025 38.5512 43.1025Z" fill="#D9D9D9" stroke="white" stroke-width="1.90028"/>
<mask id="mask0_356_11112" style="mask-type:luminance" maskUnits="userSpaceOnUse" x="30" y="26" width="17" height="17">
<path d="M46.1524 34.5513C46.1524 30.3533 42.7493 26.9502 38.5513 26.9502C34.3533 26.9502 30.9502 30.3533 30.9502 34.5513C30.9502 38.7493 34.3533 42.1524 38.5513 42.1524C42.7493 42.1524 46.1524 38.7493 46.1524 34.5513Z" fill="white"/>
</mask>
<g mask="url(#mask0_356_11112)">
<path d="M38.5514 42.1524C42.7493 42.1524 46.1525 38.7493 46.1525 34.5513C46.1525 30.3533 42.7493 26.9502 38.5514 26.9502C34.3534 26.9502 30.9502 30.3533 30.9502 34.5513C30.9502 38.7493 34.3534 42.1524 38.5514 42.1524Z" fill="#627EEA"/>
<path d="M38.5205 28.8506V33.0645L42.0821 34.656L38.5205 28.8506Z" fill="white" fill-opacity="0.602"/>
<path d="M38.5206 28.8506L34.9585 34.656L38.5206 33.0645V28.8506Z" fill="white"/>
<path d="M38.5205 37.3868V40.25L42.0844 35.3193L38.5205 37.3868Z" fill="white" fill-opacity="0.602"/>
<path d="M38.5206 40.25V37.3863L34.9585 35.3193L38.5206 40.25Z" fill="white"/>
<path d="M38.5205 36.7239L42.0821 34.6559L38.5205 33.0654V36.7239Z" fill="white" fill-opacity="0.2"/>
<path d="M34.9585 34.6559L38.5206 36.7239V33.0654L34.9585 34.6559Z" fill="white" fill-opacity="0.602"/>
</g>
</svg>
