<svg xmlns="http://www.w3.org/2000/svg" shape-rendering="crispEdges" height="2000" width="2000" viewBox="0 0 29 29" id="svg"><path fill="#FFFFFF" d="M0,0 h29v29H0z"/><path fill="#000000" d="M0 0h7v1H0zM9 0h1v1H9zM12 0h1v1H12zM15 0h1v1H15zM18 0h1v1H18zM22,0 h7v1H22zM0 1h1v1H0zM6 1h1v1H6zM8 1h1v1H8zM11 1h2v1H11zM14 1h2v1H14zM17 1h2v1H17zM20 1h1v1H20zM22 1h1v1H22zM28,1 h1v1H28zM0 2h1v1H0zM2 2h3v1H2zM6 2h1v1H6zM8 2h5v1H8zM17 2h4v1H17zM22 2h1v1H22zM24 2h3v1H24zM28,2 h1v1H28zM0 3h1v1H0zM2 3h3v1H2zM6 3h1v1H6zM9 3h3v1H9zM14 3h1v1H14zM18 3h1v1H18zM22 3h1v1H22zM24 3h3v1H24zM28,3 h1v1H28zM0 4h1v1H0zM2 4h3v1H2zM6 4h1v1H6zM8 4h1v1H8zM15 4h4v1H15zM20 4h1v1H20zM22 4h1v1H22zM24 4h3v1H24zM28,4 h1v1H28zM0 5h1v1H0zM6 5h1v1H6zM8 5h2v1H8zM11 5h1v1H11zM13 5h7v1H13zM22 5h1v1H22zM28,5 h1v1H28zM0 6h7v1H0zM8 6h1v1H8zM10 6h1v1H10zM12 6h1v1H12zM14 6h1v1H14zM16 6h1v1H16zM18 6h1v1H18zM20 6h1v1H20zM22,6 h7v1H22zM8 7h2v1H8zM12 7h1v1H12zM14 7h1v1H14zM16 7h2v1H16zM19 7h1v1H19zM0 8h2v1H0zM3 8h1v1H3zM6 8h2v1H6zM10 8h1v1H10zM13 8h2v1H13zM19 8h1v1H19zM22 8h3v1H22zM26 8h2v1H26zM0 9h3v1H0zM8 9h1v1H8zM10 9h2v1H10zM13 9h2v1H13zM16 9h1v1H16zM20 9h4v1H20zM25 9h1v1H25zM28,9 h1v1H28zM1 10h2v1H1zM4 10h1v1H4zM6 10h1v1H6zM8 10h3v1H8zM13 10h2v1H13zM16 10h1v1H16zM18 10h5v1H18zM24 10h4v1H24zM2 11h3v1H2zM13 11h2v1H13zM16 11h1v1H16zM18 11h1v1H18zM21 11h3v1H21zM26 11h2v1H26zM0 12h3v1H0zM5 12h2v1H5zM8 12h1v1H8zM12 12h2v1H12zM15 12h1v1H15zM17 12h1v1H17zM19 12h5v1H19zM25 12h1v1H25zM27,12 h2v1H27zM1 13h3v1H1zM5 13h1v1H5zM9 13h4v1H9zM15 13h1v1H15zM19 13h2v1H19zM0 14h2v1H0zM3 14h1v1H3zM5 14h2v1H5zM9 14h2v1H9zM12 14h1v1H12zM14 14h1v1H14zM20 14h1v1H20zM22 14h1v1H22zM25,14 h4v1H25zM0 15h1v1H0zM3 15h2v1H3zM9 15h2v1H9zM12 15h3v1H12zM16 15h4v1H16zM22 15h2v1H22zM25 15h1v1H25zM27 15h1v1H27zM2 16h1v1H2zM4 16h1v1H4zM6 16h6v1H6zM14 16h5v1H14zM20 16h2v1H20zM23 16h1v1H23zM27 16h1v1H27zM1 17h1v1H1zM7 17h1v1H7zM9 17h2v1H9zM18 17h1v1H18zM21 17h3v1H21zM25 17h1v1H25zM28,17 h1v1H28zM0 18h1v1H0zM6 18h1v1H6zM8 18h1v1H8zM10 18h1v1H10zM16 18h3v1H16zM20 18h2v1H20zM23 18h2v1H23zM27,18 h2v1H27zM2 19h1v1H2zM7 19h1v1H7zM11 19h1v1H11zM14 19h1v1H14zM17 19h1v1H17zM20 19h2v1H20zM27,19 h2v1H27zM0 20h1v1H0zM2 20h2v1H2zM6 20h3v1H6zM10 20h4v1H10zM18 20h7v1H18zM26 20h1v1H26zM8 21h1v1H8zM11 21h4v1H11zM19 21h2v1H19zM24 21h1v1H24zM26,21 h3v1H26zM0 22h7v1H0zM8 22h2v1H8zM11 22h2v1H11zM14 22h1v1H14zM17 22h1v1H17zM20 22h1v1H20zM22 22h1v1H22zM24 22h1v1H24zM27 22h1v1H27zM0 23h1v1H0zM6 23h1v1H6zM10 23h4v1H10zM18 23h1v1H18zM20 23h1v1H20zM24,23 h5v1H24zM0 24h1v1H0zM2 24h3v1H2zM6 24h1v1H6zM11 24h1v1H11zM14 24h1v1H14zM17 24h1v1H17zM20 24h5v1H20zM0 25h1v1H0zM2 25h3v1H2zM6 25h1v1H6zM8 25h1v1H8zM10 25h2v1H10zM13 25h1v1H13zM16 25h1v1H16zM20 25h1v1H20zM22 25h6v1H22zM0 26h1v1H0zM2 26h3v1H2zM6 26h1v1H6zM9 26h1v1H9zM11 26h1v1H11zM13 26h2v1H13zM16 26h2v1H16zM19 26h2v1H19zM24 26h3v1H24zM28,26 h1v1H28zM0 27h1v1H0zM6 27h1v1H6zM8 27h2v1H8zM11 27h1v1H11zM15 27h1v1H15zM17 27h1v1H17zM19 27h2v1H19zM23 27h2v1H23zM27 27h1v1H27zM0 28h7v1H0zM8 28h1v1H8zM10 28h1v1H10zM12 28h2v1H12zM15 28h3v1H15zM19 28h4v1H19zM24 28h2v1H24zM27 28h1v1H27z"/></svg>